<?xml version="1.0" encoding="UTF-8" standalone="no"?>
<svg
   xmlns:dc="http://purl.org/dc/elements/1.1/"
   xmlns:cc="http://creativecommons.org/ns#"
   xmlns:rdf="http://www.w3.org/1999/02/22-rdf-syntax-ns#"
   xmlns:svg="http://www.w3.org/2000/svg"
   xmlns="http://www.w3.org/2000/svg"
   xmlns:sodipodi="http://sodipodi.sourceforge.net/DTD/sodipodi-0.dtd"
   xmlns:inkscape="http://www.inkscape.org/namespaces/inkscape"
   version="1.1"
   id="svg272"
   xml:space="preserve"
   width="287.98666"
   height="288"
   viewBox="0 0 287.98666 288"
   sodipodi:docname="R-Graphic-CLR.svg"
   inkscape:version="1.0.1 (1.0.1+r73)"><metadata
     id="metadata278"><rdf:RDF><cc:Work
         rdf:about=""><dc:format>image/svg+xml</dc:format><dc:type
           rdf:resource="http://purl.org/dc/dcmitype/StillImage" /><dc:title></dc:title></cc:Work></rdf:RDF></metadata><defs
     id="defs276" /><sodipodi:namedview
     pagecolor="#ffffff"
     bordercolor="#666666"
     borderopacity="1"
     objecttolerance="10"
     gridtolerance="10"
     guidetolerance="10"
     inkscape:pageopacity="0"
     inkscape:pageshadow="2"
     inkscape:window-width="1918"
     inkscape:window-height="1130"
     id="namedview274"
     showgrid="false"
     inkscape:zoom="3.5"
     inkscape:cx="100.85047"
     inkscape:cy="144"
     inkscape:window-x="2478"
     inkscape:window-y="273"
     inkscape:window-maximized="0"
     inkscape:current-layer="g280" /><g
     id="g280"
     inkscape:groupmode="layer"
     inkscape:label="ink_ext_XXXXXX"
     transform="matrix(1.3333333,0,0,-1.3333333,0,288)"><g
       id="g282"
       transform="scale(0.1)"><path
         d="m 1197.51,2062.82 c -38.57,4.57 -77.76,7.19 -117.57,7.19 -359.635,0 -674.436,-191.8 -847.823,-478.65 l 321.028,-395.41 793.405,327.39 -149.04,539.48"
         style="fill:#52afe6;fill-opacity:1;fill-rule:nonzero;stroke:none"
         id="path284" /><path
         d="M 1346.55,1523.34 553.145,1195.95 1035.81,601.512 1505.84,946.75 1346.55,1523.34"
         style="fill:#e41d25;fill-opacity:1;fill-rule:nonzero;stroke:none"
         id="path286" /><path
         d="M 232.117,1591.36 C 141.91,1442.08 89.9453,1267.12 89.9453,1080.01 c 0,-24.9 1.2266,-49.49 3.0235,-73.93 l 460.1762,189.87 -321.028,395.41"
         style="fill:#3c8fcb;fill-opacity:1;fill-rule:nonzero;stroke:none"
         id="path288" /><path
         d="m 2036.24,1336.36 c -103.15,385.76 -433.37,678.48 -838.73,726.46 l 308.33,-1116.07 530.4,389.61"
         style="fill:#f9b41c;fill-opacity:1;fill-rule:nonzero;stroke:none"
         id="path290" /><path
         d="m 1505.84,946.75 179.5,-649.828 c 233.88,181.098 384.61,464.418 384.61,783.088 0,88.69 -11.82,174.59 -33.71,256.35 l -530.4,-389.61"
         style="fill:#fad007;fill-opacity:1;fill-rule:nonzero;stroke:none"
         id="path292" /><path
         d="m 1035.81,601.512 370.4,-456.211 c 101.64,35.469 195.66,87.008 279.13,151.621 L 1505.84,946.75 1035.81,601.512"
         style="fill:#ef3836;fill-opacity:1;fill-rule:nonzero;stroke:none"
         id="path294" /><path
         d="M 553.145,1195.95 92.9688,1006.08 C 116.68,685.48 292.898,407.512 549.508,244.289 L 1035.81,601.512 553.145,1195.95"
         style="fill:#4fbe38;fill-opacity:1;fill-rule:nonzero;stroke:none"
         id="path296" /><path
         d="M 549.508,244.289 C 702.852,146.73 884.734,89.9883 1079.94,89.9883 c 114.37,0 224.09,19.6327 326.27,55.3127 L 1035.81,601.512 549.508,244.289"
         style="fill:#80cc2a;fill-opacity:1;fill-rule:nonzero;stroke:none"
         id="path298" /></g></g></svg>
